<?xml version="1.0" encoding="UTF-8"?>
<!-- Generated by Pixelmator Pro 2.4.3 -->
<svg width="96" height="96" viewBox="0 0 96 96" xmlns="http://www.w3.org/2000/svg" xmlns:xlink="http://www.w3.org/1999/xlink">
    <g id="g1">
        <path id="path1" fill="#ffffff" stroke="none" d="M 66 42 L 54 42 L 54 30 C 54 26.686295 51.313709 24 48 24 C 44.686291 24 42 26.686295 42 30 L 42 42 L 30 42 C 26.686291 42 24 44.686291 24 48 C 24 51.313709 26.686291 54 30 54 L 42 54 L 42 66 C 42 69.313705 44.686291 72 48 72 C 51.313709 72 54 69.313705 54 66 L 54 54 L 66 54 C 69.313705 54 72 51.313709 72 48 C 72 44.686291 69.313705 42 66 42 Z"/>
        <path id="path2" fill="#ffffff" stroke="none" d="M 48 0 C 21.490332 0 0 21.490334 0 48 C 0 74.509666 21.490332 96 48 96 C 74.509666 96 96 74.509666 96 48 C 95.971779 21.502029 74.497971 0.028221 48 0 Z M 48 84 C 28.117748 84 12 67.882248 12 48 C 12 28.117752 28.117748 12 48 12 C 67.882248 12 84 28.117752 84 48 C 83.97834 67.873276 67.873276 83.97834 48 84 Z"/>
    </g>
</svg>
